<?xml version="1.0" encoding="UTF-8" standalone="no"?>
<!DOCTYPE svg PUBLIC "-//W3C//DTD SVG 1.1//EN" "http://www.w3.org/Graphics/SVG/1.1/DTD/svg11.dtd">
<svg xmlns="http://www.w3.org/2000/svg" version="1.1" viewBox="0 0 569 387">
<g stroke-width="2.00" fill="none" stroke-linecap="butt">
<path stroke="#f4f5f5" vector-effect="non-scaling-stroke" d="
  M 29.50 379.04
  Q 31.42 379.55 30.94 381.04
  Q 30.79 381.51 30.89 381.99
  L 31.50 384.98
  A 0.62 0.55 86.2 0 0 32.00 385.47
  Q 41.10 386.44 50.00 386.44
  Q 288.75 386.50 528.23 386.50
  A 1.95 1.94 5.6 0 0 530.14 384.94
  Q 530.42 383.49 532.08 382.71
  Q 535.47 381.14 533.00 379.01"
/>
<path stroke="#818b9b" vector-effect="non-scaling-stroke" d="
  M 533.00 379.01
  C 540.15 378.99 553.95 381.30 557.75 373.65
  C 559.34 370.45 559.00 366.37 559.00 362.50
  Q 559.00 194.19 559.00 25.88
  C 559.00 17.18 558.24 10.00 548.00 10.00
  Q 290.88 10.00 33.75 10.00
  C 24.83 10.00 9.00 7.04 9.00 20.75
  C 9.00 136.64 8.24 252.61 9.23 368.49
  C 9.33 380.75 21.32 379.16 29.50 379.04"
/>
<path stroke="#768091" vector-effect="non-scaling-stroke" d="
  M 533.00 379.01
  L 29.50 379.04"
/>
<path stroke="#818b9b" vector-effect="non-scaling-stroke" d="
  M 207.73 197.67
  C 202.76 202.10 194.62 202.53 190.39 196.93
  C 181.39 184.99 195.52 168.89 207.62 179.41
  A 0.71 0.49 41.8 0 0 208.45 179.52
  L 210.38 177.48
  A 0.87 0.76 42.3 0 0 210.25 176.32
  C 204.87 171.48 196.37 170.98 190.57 174.61
  C 172.44 185.95 188.53 214.69 209.87 201.37
  A 1.37 1.37 -38.3 0 0 210.12 199.24
  L 208.57 197.70
  A 0.62 0.61 46.7 0 0 207.73 197.67"
/>
<path stroke="#818b9b" vector-effect="non-scaling-stroke" d="
  M 330.33 175.90
  C 306.61 160.72 291.42 196.50 314.45 204.10
  Q 322.11 206.64 330.63 201.03
  A 0.85 0.82 -38.9 0 0 330.79 199.75
  L 328.64 197.57
  A 0.55 0.51 -44.2 0 0 327.90 197.59
  Q 323.45 201.84 318.11 200.99
  C 303.15 198.62 305.00 175.26 320.76 176.11
  Q 324.79 176.33 327.70 179.61
  A 0.72 0.72 -43.1 0 0 328.74 179.64
  L 330.54 177.84
  A 1.25 1.25 38.8 0 0 330.33 175.90"
/>
<path stroke="#818b9b" vector-effect="non-scaling-stroke" d="
  M 391.14 188.54
  Q 391.40 186.34 393.57 186.77
  Q 397.21 187.48 396.57 184.04
  A 0.66 0.66 -5.2 0 0 395.92 183.50
  L 392.14 183.50
  A 1.18 1.15 89.7 0 1 390.99 182.33
  L 390.96 177.32
  A 0.57 0.50 88.5 0 0 390.44 176.76
  L 387.43 176.85
  A 0.60 0.57 89.5 0 0 386.88 177.44
  L 386.78 182.87
  A 0.61 0.58 -83.8 0 1 386.08 183.46
  C 382.97 182.79 383.76 187.80 385.58 187.07
  A 0.85 0.85 -11.0 0 1 386.75 187.86
  C 386.75 193.69 384.77 203.44 393.00 205.00
  Q 397.70 205.89 396.64 201.73
  A 0.58 0.54 -10.9 0 0 396.01 201.34
  C 392.97 201.79 391.69 200.38 391.31 197.42
  Q 390.67 192.45 391.14 188.54"
/>
<path stroke="#296096" vector-effect="non-scaling-stroke" d="
  M 132.50 181.21
  C 131.02 182.88 119.97 195.82 119.00 195.79"
/>
<path stroke="#296096" vector-effect="non-scaling-stroke" d="
  M 119.00 195.79
  Q 117.53 194.23 115.55 194.28
  A 0.73 0.67 -80.8 0 0 114.91 194.78
  Q 112.44 201.98 106.52 206.85
  Q 105.40 207.77 106.83 207.76
  L 113.93 207.70
  A 0.40 0.39 -8.1 0 0 114.32 207.20
  Q 113.96 206.06 112.96 205.52
  A 0.63 0.63 39.1 0 1 112.85 204.49
  C 115.71 202.05 115.03 200.58 115.28 197.32
  Q 115.59 193.29 118.96 196.50"
/>
<path stroke="#296096" vector-effect="non-scaling-stroke" d="
  M 118.96 196.50
  C 120.36 197.43 123.56 200.36 124.79 198.73
  A 1.74 1.62 -80.2 0 1 125.54 198.16
  L 132.05 195.70
  A 0.44 0.40 63.2 0 0 132.22 195.08
  L 129.00 189.93
  A 0.89 0.86 44.0 0 1 128.97 189.05
  L 133.04 181.75"
/>
<path stroke="#296096" vector-effect="non-scaling-stroke" d="
  M 133.04 181.75
  Q 133.39 180.24 134.25 181.25
  Q 139.13 186.98 144.31 192.44
  C 146.17 194.40 145.89 198.41 147.03 199.39
  Q 147.44 199.74 147.37 199.19
  Q 146.84 195.14 148.14 191.29
  Q 148.30 190.82 148.54 191.27
  L 152.75 199.29"
/>
<path stroke="#296096" vector-effect="non-scaling-stroke" d="
  M 152.75 199.29
  C 153.31 201.82 154.34 204.36 157.59 201.70
  A 1.15 1.07 53.9 0 1 159.21 202.01
  L 162.61 207.17
  A 0.76 0.71 75.0 0 0 163.16 207.51
  Q 163.71 207.56 163.29 206.95
  Q 161.36 204.12 159.47 201.03
  A 2.11 2.09 -19.4 0 0 157.40 200.05
  Q 155.34 200.32 153.25 199.21"
/>
<path stroke="#296096" vector-effect="non-scaling-stroke" d="
  M 153.25 199.21
  L 149.52 190.83
  Q 148.58 188.74 146.75 190.13
  Q 144.38 191.92 142.52 189.59
  C 140.25 186.74 137.70 184.08 135.33 181.30
  C 134.47 180.28 133.27 179.69 132.50 181.21"
/>
<path stroke="#4fa9f6" vector-effect="non-scaling-stroke" d="
  M 153.25 199.21
  L 152.75 199.29"
/>
<path stroke="#4fa9f6" vector-effect="non-scaling-stroke" d="
  M 133.04 181.75
  Q 133.08 181.17 132.50 181.21"
/>
<path stroke="#4fa9f6" vector-effect="non-scaling-stroke" d="
  M 118.96 196.50
  L 119.00 195.79"
/>
<path stroke="#818b9b" vector-effect="non-scaling-stroke" d="
  M 237.56 194.06
  A 10.87 10.87 0.0 0 0 226.69 183.19
  A 10.87 10.87 0.0 0 0 215.82 194.06
  A 10.87 10.87 0.0 0 0 226.69 204.93
  A 10.87 10.87 0.0 0 0 237.56 194.06"
/>
<path stroke="#818b9b" vector-effect="non-scaling-stroke" d="
  M 267.56 195.81
  L 282.94 195.69
  A 0.53 0.53 -88.3 0 0 283.47 195.19
  Q 283.91 187.69 278.43 184.68
  C 265.80 177.73 255.95 194.94 266.68 202.87
  Q 273.11 207.62 281.03 202.37
  A 1.00 0.92 -41.7 0 0 281.19 200.82
  L 278.99 199.06
  A 0.65 0.54 -47.4 0 0 278.21 199.17
  C 274.72 202.55 267.48 201.95 267.08 196.32
  A 0.48 0.47 -2.2 0 1 267.56 195.81"
/>
<path stroke="#818b9b" vector-effect="non-scaling-stroke" d="
  M 292.36 185.19
  Q 292.36 183.02 288.65 183.77
  A 0.82 0.82 -6.1 0 0 288.00 184.57
  L 288.00 203.88
  A 0.56 0.52 -89.5 0 0 288.51 204.44
  L 291.95 204.49
  A 0.52 0.46 87.7 0 0 292.40 203.93
  C 292.10 199.15 290.85 188.91 296.80 187.06
  C 298.58 186.51 301.39 187.49 300.34 183.79
  A 0.78 0.76 -4.4 0 0 299.68 183.24
  Q 295.63 182.71 292.68 185.35
  Q 292.36 185.63 292.36 185.19"
/>
<path stroke="#818b9b" vector-effect="non-scaling-stroke" d="
  M 349.42 188.26
  Q 351.21 191.97 346.25 191.25
  Q 342.06 190.64 338.97 192.77
  C 329.96 199.00 341.35 209.29 349.18 203.01
  Q 349.54 202.72 349.58 203.19
  C 349.78 205.46 352.46 204.57 353.94 204.48
  A 0.52 0.51 86.0 0 0 354.41 203.93
  Q 354.00 195.59 354.25 192.50
  C 355.05 182.60 344.02 180.42 338.34 186.14
  A 0.66 0.66 52.2 0 0 338.24 186.94
  Q 339.01 188.24 340.30 189.01
  A 0.69 0.64 -51.1 0 0 341.10 188.89
  Q 344.47 185.60 348.75 187.59
  A 1.43 1.37 88.8 0 1 349.42 188.26"
/>
<path stroke="#818b9b" vector-effect="non-scaling-stroke" d="
  M 363.81 204.12
  A 0.62 0.60 -77.2 0 1 364.66 203.57
  C 384.12 212.37 386.14 177.85 366.08 184.14
  C 365.26 184.40 364.27 185.38 363.53 184.14
  A 1.28 0.83 71.9 0 0 362.82 183.57
  Q 361.29 183.26 359.79 183.67
  A 0.67 0.65 82.6 0 0 359.31 184.31
  L 359.25 214.56
  A 0.76 0.70 88.6 0 0 359.99 215.32
  L 363.07 215.13
  A 0.58 0.55 89.5 0 0 363.59 214.57
  L 363.81 204.12"
/>
<path stroke="#818b9b" vector-effect="non-scaling-stroke" d="
  M 432.03 185.19
  L 431.88 184.22
  A 0.81 0.72 2.9 0 0 431.27 183.62
  Q 429.64 183.22 428.04 183.66
  A 0.69 0.67 82.2 0 0 427.56 184.32
  L 427.50 203.98
  A 0.52 0.52 90.0 0 0 428.02 204.50
  L 431.22 204.50
  A 0.56 0.56 89.0 0 0 431.78 203.92
  C 431.59 199.34 430.60 187.89 436.68 186.85
  C 437.86 186.65 439.73 187.83 439.77 185.75
  Q 439.78 185.36 439.94 184.79
  Q 440.05 184.37 439.95 183.97
  A 0.90 0.74 0.1 0 0 439.26 183.40
  Q 435.31 182.66 432.42 185.34
  Q 432.10 185.63 432.03 185.19"
/>
<path stroke="#818b9b" vector-effect="non-scaling-stroke" d="
  M 455.86 200.53
  C 452.10 202.22 447.75 201.01 446.52 196.83
  A 0.87 0.85 -8.1 0 1 447.36 195.74
  L 462.32 195.58
  A 0.52 0.51 -89.4 0 0 462.83 195.07
  Q 463.12 184.88 454.54 183.46
  C 437.53 180.64 437.21 206.71 454.58 205.05
  Q 457.87 204.73 460.53 202.10
  A 0.91 0.91 45.7 0 0 460.54 200.82
  Q 458.03 198.22 456.61 199.90
  Q 456.20 200.37 455.86 200.53"
/>
<path stroke="#818b9b" vector-effect="non-scaling-stroke" d="
  M 250.23 197.48
  L 244.86 184.53
  A 1.45 0.82 80.2 0 0 244.26 183.80
  Q 243.06 183.25 240.65 183.82
  A 0.44 0.44 -18.3 0 0 240.35 184.42
  Q 244.51 193.85 248.37 203.04
  C 249.38 205.47 251.35 205.29 252.37 202.94
  C 254.91 197.05 257.13 190.53 260.07 184.89
  Q 261.07 182.98 256.79 183.77
  A 1.48 1.45 -84.2 0 0 255.71 184.67
  L 250.63 197.47
  Q 250.43 197.97 250.23 197.48"
/>
<path stroke="#818b9b" vector-effect="non-scaling-stroke" d="
  M 416.61 202.56
  C 416.34 205.09 419.22 204.89 420.78 204.43
  A 0.72 0.66 82.5 0 0 421.25 203.75
  L 421.19 184.32
  A 0.68 0.44 88.9 0 0 420.72 183.63
  L 417.75 183.82
  A 1.00 0.87 86.6 0 0 416.94 184.87
  C 417.19 188.68 417.80 197.49 414.81 200.13
  C 411.78 202.80 406.41 201.56 406.25 196.75
  Q 405.95 187.80 405.94 184.31
  A 0.64 0.50 -89.7 0 0 405.46 183.69
  L 402.30 183.50
  A 0.57 0.48 -87.4 0 0 401.79 184.06
  C 401.54 191.27 400.71 201.31 405.00 203.75
  Q 411.01 207.17 416.32 202.40
  Q 416.66 202.10 416.61 202.56"
/>
<path stroke="#296096" vector-effect="non-scaling-stroke" d="
  M 129.38 205.65
  A 2.57 2.57 63.0 0 0 128.06 205.22
  Q 124.65 205.07 120.69 204.06
  C 117.74 203.31 120.00 204.97 120.60 205.04
  Q 124.82 205.57 128.76 207.06
  C 129.83 207.46 132.81 207.93 129.38 205.65"
/>
<path stroke="#296096" vector-effect="non-scaling-stroke" d="
  M 151.73 206.05
  Q 146.76 204.93 141.69 205.39
  A 1.62 1.24 14.8 0 0 140.80 205.76
  Q 140.09 206.43 139.81 207.33
  A 0.38 0.36 8.0 0 0 140.19 207.80
  Q 145.59 207.72 150.98 207.80
  C 152.41 207.83 154.46 206.67 151.73 206.05"
/>
<path stroke="#818b9b" vector-effect="non-scaling-stroke" d="
  M 226.3112 201.2795
  A 7.19 6.53 93.1 0 0 233.2204 194.4531
  A 7.19 6.53 93.1 0 0 227.0888 186.9205
  A 7.19 6.53 93.1 0 0 220.1796 193.7469
  A 7.19 6.53 93.1 0 0 226.3112 201.2795"
/>
<path stroke="#818b9b" vector-effect="non-scaling-stroke" d="
  M 267.92 189.20
  Q 265.34 192.17 269.12 192.04
  L 278.44 191.74
  A 0.46 0.44 82.8 0 0 278.85 191.19
  C 277.77 186.01 270.97 185.71 267.92 189.20"
/>
<path stroke="#818b9b" vector-effect="non-scaling-stroke" d="
  M 348.50 200.17
  A 4.14 4.12 -18.3 0 0 349.56 198.08
  Q 350.27 194.09 347.73 194.83
  Q 347.20 194.98 346.76 194.94
  C 344.78 194.73 341.94 194.85 340.80 196.80
  C 338.14 201.35 346.38 202.41 348.50 200.17"
/>
<path stroke="#818b9b" vector-effect="non-scaling-stroke" d="
  M 369.2746 201.3581
  A 7.29 6.55 91.3 0 0 375.9883 194.2186
  A 7.29 6.55 91.3 0 0 369.6054 186.7819
  A 7.29 6.55 91.3 0 0 362.8917 193.9214
  A 7.29 6.55 91.3 0 0 369.2746 201.3581"
/>
<path stroke="#818b9b" vector-effect="non-scaling-stroke" d="
  M 447.35 189.30
  Q 445.16 191.66 448.37 191.98
  Q 452.27 192.36 457.70 191.74
  A 0.47 0.47 -7.9 0 0 458.12 191.19
  C 457.17 185.92 450.56 185.83 447.35 189.30"
/>
</g>
<path fill="#ffffff" d="
  M 0.00 0.00
  L 569.00 0.00
  L 569.00 387.00
  L 0.00 387.00
  L 0.00 0.00
  Z
  M 29.50 379.04
  Q 31.42 379.55 30.94 381.04
  Q 30.79 381.51 30.89 381.99
  L 31.50 384.98
  A 0.62 0.55 86.2 0 0 32.00 385.47
  Q 41.10 386.44 50.00 386.44
  Q 288.75 386.50 528.23 386.50
  A 1.95 1.94 5.6 0 0 530.14 384.94
  Q 530.42 383.49 532.08 382.71
  Q 535.47 381.14 533.00 379.01
  C 540.15 378.99 553.95 381.30 557.75 373.65
  C 559.34 370.45 559.00 366.37 559.00 362.50
  Q 559.00 194.19 559.00 25.88
  C 559.00 17.18 558.24 10.00 548.00 10.00
  Q 290.88 10.00 33.75 10.00
  C 24.83 10.00 9.00 7.04 9.00 20.75
  C 9.00 136.64 8.24 252.61 9.23 368.49
  C 9.33 380.75 21.32 379.16 29.50 379.04
  Z"
/>
<path fill="#031636" d="
  M 533.00 379.01
  L 29.50 379.04
  C 21.32 379.16 9.33 380.75 9.23 368.49
  C 8.24 252.61 9.00 136.64 9.00 20.75
  C 9.00 7.04 24.83 10.00 33.75 10.00
  Q 290.88 10.00 548.00 10.00
  C 558.24 10.00 559.00 17.18 559.00 25.88
  Q 559.00 194.19 559.00 362.50
  C 559.00 366.37 559.34 370.45 557.75 373.65
  C 553.95 381.30 540.15 378.99 533.00 379.01
  Z
  M 207.73 197.67
  C 202.76 202.10 194.62 202.53 190.39 196.93
  C 181.39 184.99 195.52 168.89 207.62 179.41
  A 0.71 0.49 41.8 0 0 208.45 179.52
  L 210.38 177.48
  A 0.87 0.76 42.3 0 0 210.25 176.32
  C 204.87 171.48 196.37 170.98 190.57 174.61
  C 172.44 185.95 188.53 214.69 209.87 201.37
  A 1.37 1.37 -38.3 0 0 210.12 199.24
  L 208.57 197.70
  A 0.62 0.61 46.7 0 0 207.73 197.67
  Z
  M 330.33 175.90
  C 306.61 160.72 291.42 196.50 314.45 204.10
  Q 322.11 206.64 330.63 201.03
  A 0.85 0.82 -38.9 0 0 330.79 199.75
  L 328.64 197.57
  A 0.55 0.51 -44.2 0 0 327.90 197.59
  Q 323.45 201.84 318.11 200.99
  C 303.15 198.62 305.00 175.26 320.76 176.11
  Q 324.79 176.33 327.70 179.61
  A 0.72 0.72 -43.1 0 0 328.74 179.64
  L 330.54 177.84
  A 1.25 1.25 38.8 0 0 330.33 175.90
  Z
  M 391.14 188.54
  Q 391.40 186.34 393.57 186.77
  Q 397.21 187.48 396.57 184.04
  A 0.66 0.66 -5.2 0 0 395.92 183.50
  L 392.14 183.50
  A 1.18 1.15 89.7 0 1 390.99 182.33
  L 390.96 177.32
  A 0.57 0.50 88.5 0 0 390.44 176.76
  L 387.43 176.85
  A 0.60 0.57 89.5 0 0 386.88 177.44
  L 386.78 182.87
  A 0.61 0.58 -83.8 0 1 386.08 183.46
  C 382.97 182.79 383.76 187.80 385.58 187.07
  A 0.85 0.85 -11.0 0 1 386.75 187.86
  C 386.75 193.69 384.77 203.44 393.00 205.00
  Q 397.70 205.89 396.64 201.73
  A 0.58 0.54 -10.9 0 0 396.01 201.34
  C 392.97 201.79 391.69 200.38 391.31 197.42
  Q 390.67 192.45 391.14 188.54
  Z
  M 132.50 181.21
  C 131.02 182.88 119.97 195.82 119.00 195.79
  Q 117.53 194.23 115.55 194.28
  A 0.73 0.67 -80.8 0 0 114.91 194.78
  Q 112.44 201.98 106.52 206.85
  Q 105.40 207.77 106.83 207.76
  L 113.93 207.70
  A 0.40 0.39 -8.1 0 0 114.32 207.20
  Q 113.96 206.06 112.96 205.52
  A 0.63 0.63 39.1 0 1 112.85 204.49
  C 115.71 202.05 115.03 200.58 115.28 197.32
  Q 115.59 193.29 118.96 196.50
  C 120.36 197.43 123.56 200.36 124.79 198.73
  A 1.74 1.62 -80.2 0 1 125.54 198.16
  L 132.05 195.70
  A 0.44 0.40 63.2 0 0 132.22 195.08
  L 129.00 189.93
  A 0.89 0.86 44.0 0 1 128.97 189.05
  L 133.04 181.75
  Q 133.39 180.24 134.25 181.25
  Q 139.13 186.98 144.31 192.44
  C 146.17 194.40 145.89 198.41 147.03 199.39
  Q 147.44 199.74 147.37 199.19
  Q 146.84 195.14 148.14 191.29
  Q 148.30 190.82 148.54 191.27
  L 152.75 199.29
  C 153.31 201.82 154.34 204.36 157.59 201.70
  A 1.15 1.07 53.9 0 1 159.21 202.01
  L 162.61 207.17
  A 0.76 0.71 75.0 0 0 163.16 207.51
  Q 163.71 207.56 163.29 206.95
  Q 161.36 204.12 159.47 201.03
  A 2.11 2.09 -19.4 0 0 157.40 200.05
  Q 155.34 200.32 153.25 199.21
  L 149.52 190.83
  Q 148.58 188.74 146.75 190.13
  Q 144.38 191.92 142.52 189.59
  C 140.25 186.74 137.70 184.08 135.33 181.30
  C 134.47 180.28 133.27 179.69 132.50 181.21
  Z
  M 237.56 194.06
  A 10.87 10.87 0.0 0 0 226.69 183.19
  A 10.87 10.87 0.0 0 0 215.82 194.06
  A 10.87 10.87 0.0 0 0 226.69 204.93
  A 10.87 10.87 0.0 0 0 237.56 194.06
  Z
  M 267.56 195.81
  L 282.94 195.69
  A 0.53 0.53 -88.3 0 0 283.47 195.19
  Q 283.91 187.69 278.43 184.68
  C 265.80 177.73 255.95 194.94 266.68 202.87
  Q 273.11 207.62 281.03 202.37
  A 1.00 0.92 -41.7 0 0 281.19 200.82
  L 278.99 199.06
  A 0.65 0.54 -47.4 0 0 278.21 199.17
  C 274.72 202.55 267.48 201.95 267.08 196.32
  A 0.48 0.47 -2.2 0 1 267.56 195.81
  Z
  M 292.36 185.19
  Q 292.36 183.02 288.65 183.77
  A 0.82 0.82 -6.1 0 0 288.00 184.57
  L 288.00 203.88
  A 0.56 0.52 -89.5 0 0 288.51 204.44
  L 291.95 204.49
  A 0.52 0.46 87.7 0 0 292.40 203.93
  C 292.10 199.15 290.85 188.91 296.80 187.06
  C 298.58 186.51 301.39 187.49 300.34 183.79
  A 0.78 0.76 -4.4 0 0 299.68 183.24
  Q 295.63 182.71 292.68 185.35
  Q 292.36 185.63 292.36 185.19
  Z
  M 349.42 188.26
  Q 351.21 191.97 346.25 191.25
  Q 342.06 190.64 338.97 192.77
  C 329.96 199.00 341.35 209.29 349.18 203.01
  Q 349.54 202.72 349.58 203.19
  C 349.78 205.46 352.46 204.57 353.94 204.48
  A 0.52 0.51 86.0 0 0 354.41 203.93
  Q 354.00 195.59 354.25 192.50
  C 355.05 182.60 344.02 180.42 338.34 186.14
  A 0.66 0.66 52.2 0 0 338.24 186.94
  Q 339.01 188.24 340.30 189.01
  A 0.69 0.64 -51.1 0 0 341.10 188.89
  Q 344.47 185.60 348.75 187.59
  A 1.43 1.37 88.8 0 1 349.42 188.26
  Z
  M 363.81 204.12
  A 0.62 0.60 -77.2 0 1 364.66 203.57
  C 384.12 212.37 386.14 177.85 366.08 184.14
  C 365.26 184.40 364.27 185.38 363.53 184.14
  A 1.28 0.83 71.9 0 0 362.82 183.57
  Q 361.29 183.26 359.79 183.67
  A 0.67 0.65 82.6 0 0 359.31 184.31
  L 359.25 214.56
  A 0.76 0.70 88.6 0 0 359.99 215.32
  L 363.07 215.13
  A 0.58 0.55 89.5 0 0 363.59 214.57
  L 363.81 204.12
  Z
  M 432.03 185.19
  L 431.88 184.22
  A 0.81 0.72 2.9 0 0 431.27 183.62
  Q 429.64 183.22 428.04 183.66
  A 0.69 0.67 82.2 0 0 427.56 184.32
  L 427.50 203.98
  A 0.52 0.52 90.0 0 0 428.02 204.50
  L 431.22 204.50
  A 0.56 0.56 89.0 0 0 431.78 203.92
  C 431.59 199.34 430.60 187.89 436.68 186.85
  C 437.86 186.65 439.73 187.83 439.77 185.75
  Q 439.78 185.36 439.94 184.79
  Q 440.05 184.37 439.95 183.97
  A 0.90 0.74 0.1 0 0 439.26 183.40
  Q 435.31 182.66 432.42 185.34
  Q 432.10 185.63 432.03 185.19
  Z
  M 455.86 200.53
  C 452.10 202.22 447.75 201.01 446.52 196.83
  A 0.87 0.85 -8.1 0 1 447.36 195.74
  L 462.32 195.58
  A 0.52 0.51 -89.4 0 0 462.83 195.07
  Q 463.12 184.88 454.54 183.46
  C 437.53 180.64 437.21 206.71 454.58 205.05
  Q 457.87 204.73 460.53 202.10
  A 0.91 0.91 45.7 0 0 460.54 200.82
  Q 458.03 198.22 456.61 199.90
  Q 456.20 200.37 455.86 200.53
  Z
  M 250.23 197.48
  L 244.86 184.53
  A 1.45 0.82 80.2 0 0 244.26 183.80
  Q 243.06 183.25 240.65 183.82
  A 0.44 0.44 -18.3 0 0 240.35 184.42
  Q 244.51 193.85 248.37 203.04
  C 249.38 205.47 251.35 205.29 252.37 202.94
  C 254.91 197.05 257.13 190.53 260.07 184.89
  Q 261.07 182.98 256.79 183.77
  A 1.48 1.45 -84.2 0 0 255.71 184.67
  L 250.63 197.47
  Q 250.43 197.97 250.23 197.48
  Z
  M 416.61 202.56
  C 416.34 205.09 419.22 204.89 420.78 204.43
  A 0.72 0.66 82.5 0 0 421.25 203.75
  L 421.19 184.32
  A 0.68 0.44 88.9 0 0 420.72 183.63
  L 417.75 183.82
  A 1.00 0.87 86.6 0 0 416.94 184.87
  C 417.19 188.68 417.80 197.49 414.81 200.13
  C 411.78 202.80 406.41 201.56 406.25 196.75
  Q 405.95 187.80 405.94 184.31
  A 0.64 0.50 -89.7 0 0 405.46 183.69
  L 402.30 183.50
  A 0.57 0.48 -87.4 0 0 401.79 184.06
  C 401.54 191.27 400.71 201.31 405.00 203.75
  Q 411.01 207.17 416.32 202.40
  Q 416.66 202.10 416.61 202.56
  Z
  M 129.38 205.65
  A 2.57 2.57 63.0 0 0 128.06 205.22
  Q 124.65 205.07 120.69 204.06
  C 117.74 203.31 120.00 204.97 120.60 205.04
  Q 124.82 205.57 128.76 207.06
  C 129.83 207.46 132.81 207.93 129.38 205.65
  Z
  M 151.73 206.05
  Q 146.76 204.93 141.69 205.39
  A 1.62 1.24 14.8 0 0 140.80 205.76
  Q 140.09 206.43 139.81 207.33
  A 0.38 0.36 8.0 0 0 140.19 207.80
  Q 145.59 207.72 150.98 207.80
  C 152.41 207.83 154.46 206.67 151.73 206.05
  Z"
/>
<path fill="#ffffff" d="
  M 190.39 196.93
  C 194.62 202.53 202.76 202.10 207.73 197.67
  A 0.62 0.61 46.7 0 1 208.57 197.70
  L 210.12 199.24
  A 1.37 1.37 -38.3 0 1 209.87 201.37
  C 188.53 214.69 172.44 185.95 190.57 174.61
  C 196.37 170.98 204.87 171.48 210.25 176.32
  A 0.87 0.76 42.3 0 1 210.38 177.48
  L 208.45 179.52
  A 0.71 0.49 41.8 0 1 207.62 179.41
  C 195.52 168.89 181.39 184.99 190.39 196.93
  Z"
/>
<path fill="#ffffff" d="
  M 314.45 204.10
  C 291.42 196.50 306.61 160.72 330.33 175.90
  A 1.25 1.25 38.8 0 1 330.54 177.84
  L 328.74 179.64
  A 0.72 0.72 -43.1 0 1 327.70 179.61
  Q 324.79 176.33 320.76 176.11
  C 305.00 175.26 303.15 198.62 318.11 200.99
  Q 323.45 201.84 327.90 197.59
  A 0.55 0.51 -44.2 0 1 328.64 197.57
  L 330.79 199.75
  A 0.85 0.82 -38.9 0 1 330.63 201.03
  Q 322.11 206.64 314.45 204.10
  Z"
/>
<path fill="#ffffff" d="
  M 391.14 188.54
  Q 390.67 192.45 391.31 197.42
  C 391.69 200.38 392.97 201.79 396.01 201.34
  A 0.58 0.54 -10.9 0 1 396.64 201.73
  Q 397.70 205.89 393.00 205.00
  C 384.77 203.44 386.75 193.69 386.75 187.86
  A 0.85 0.85 -11.0 0 0 385.58 187.07
  C 383.76 187.80 382.97 182.79 386.08 183.46
  A 0.61 0.58 -83.8 0 0 386.78 182.87
  L 386.88 177.44
  A 0.60 0.57 89.5 0 1 387.43 176.85
  L 390.44 176.76
  A 0.57 0.50 88.5 0 1 390.96 177.32
  L 390.99 182.33
  A 1.18 1.15 89.7 0 0 392.14 183.50
  L 395.92 183.50
  A 0.66 0.66 -5.2 0 1 396.57 184.04
  Q 397.21 187.48 393.57 186.77
  Q 391.40 186.34 391.14 188.54
  Z"
/>
<path fill="#4fa9f6" d="
  M 153.25 199.21
  L 152.75 199.29
  L 148.54 191.27
  Q 148.30 190.82 148.14 191.29
  Q 146.84 195.14 147.37 199.19
  Q 147.44 199.74 147.03 199.39
  C 145.89 198.41 146.17 194.40 144.31 192.44
  Q 139.13 186.98 134.25 181.25
  Q 133.39 180.24 133.04 181.75
  Q 133.08 181.17 132.50 181.21
  C 133.27 179.69 134.47 180.28 135.33 181.30
  C 137.70 184.08 140.25 186.74 142.52 189.59
  Q 144.38 191.92 146.75 190.13
  Q 148.58 188.74 149.52 190.83
  L 153.25 199.21
  Z"
/>
<path fill="#4fa9f6" d="
  M 132.50 181.21
  Q 133.08 181.17 133.04 181.75
  L 128.97 189.05
  A 0.89 0.86 44.0 0 0 129.00 189.93
  L 132.22 195.08
  A 0.44 0.40 63.2 0 1 132.05 195.70
  L 125.54 198.16
  A 1.74 1.62 -80.2 0 0 124.79 198.73
  C 123.56 200.36 120.36 197.43 118.96 196.50
  L 119.00 195.79
  C 119.97 195.82 131.02 182.88 132.50 181.21
  Z"
/>
<path fill="#ffffff" d="
  M 237.56 194.06
  A 10.87 10.87 0.0 0 1 226.69 204.93
  A 10.87 10.87 0.0 0 1 215.82 194.06
  A 10.87 10.87 0.0 0 1 226.69 183.19
  A 10.87 10.87 0.0 0 1 237.56 194.06
  Z
  M 226.3112 201.2795
  A 7.19 6.53 93.1 0 0 233.2204 194.4531
  A 7.19 6.53 93.1 0 0 227.0888 186.9205
  A 7.19 6.53 93.1 0 0 220.1796 193.7469
  A 7.19 6.53 93.1 0 0 226.3112 201.2795
  Z"
/>
<path fill="#ffffff" d="
  M 267.08 196.32
  C 267.48 201.95 274.72 202.55 278.21 199.17
  A 0.65 0.54 -47.4 0 1 278.99 199.06
  L 281.19 200.82
  A 1.00 0.92 -41.7 0 1 281.03 202.37
  Q 273.11 207.62 266.68 202.87
  C 255.95 194.94 265.80 177.73 278.43 184.68
  Q 283.91 187.69 283.47 195.19
  A 0.53 0.53 -88.3 0 1 282.94 195.69
  L 267.56 195.81
  A 0.48 0.47 -2.2 0 0 267.08 196.32
  Z
  M 267.92 189.20
  Q 265.34 192.17 269.12 192.04
  L 278.44 191.74
  A 0.46 0.44 82.8 0 0 278.85 191.19
  C 277.77 186.01 270.97 185.71 267.92 189.20
  Z"
/>
<path fill="#ffffff" d="
  M 292.68 185.35
  Q 295.63 182.71 299.68 183.24
  A 0.78 0.76 -4.4 0 1 300.34 183.79
  C 301.39 187.49 298.58 186.51 296.80 187.06
  C 290.85 188.91 292.10 199.15 292.40 203.93
  A 0.52 0.46 87.7 0 1 291.95 204.49
  L 288.51 204.44
  A 0.56 0.52 -89.5 0 1 288.00 203.88
  L 288.00 184.57
  A 0.82 0.82 -6.1 0 1 288.65 183.77
  Q 292.36 183.02 292.36 185.19
  Q 292.36 185.63 292.68 185.35
  Z"
/>
<path fill="#ffffff" d="
  M 348.75 187.59
  Q 344.47 185.60 341.10 188.89
  A 0.69 0.64 -51.1 0 1 340.30 189.01
  Q 339.01 188.24 338.24 186.94
  A 0.66 0.66 52.2 0 1 338.34 186.14
  C 344.02 180.42 355.05 182.60 354.25 192.50
  Q 354.00 195.59 354.41 203.93
  A 0.52 0.51 86.0 0 1 353.94 204.48
  C 352.46 204.57 349.78 205.46 349.58 203.19
  Q 349.54 202.72 349.18 203.01
  C 341.35 209.29 329.96 199.00 338.97 192.77
  Q 342.06 190.64 346.25 191.25
  Q 351.21 191.97 349.42 188.26
  A 1.43 1.37 88.8 0 0 348.75 187.59
  Z
  M 348.50 200.17
  A 4.14 4.12 -18.3 0 0 349.56 198.08
  Q 350.27 194.09 347.73 194.83
  Q 347.20 194.98 346.76 194.94
  C 344.78 194.73 341.94 194.85 340.80 196.80
  C 338.14 201.35 346.38 202.41 348.50 200.17
  Z"
/>
<path fill="#ffffff" d="
  M 363.81 204.12
  L 363.59 214.57
  A 0.58 0.55 89.5 0 1 363.07 215.13
  L 359.99 215.32
  A 0.76 0.70 88.6 0 1 359.25 214.56
  L 359.31 184.31
  A 0.67 0.65 82.6 0 1 359.79 183.67
  Q 361.29 183.26 362.82 183.57
  A 1.28 0.83 71.9 0 1 363.53 184.14
  C 364.27 185.38 365.26 184.40 366.08 184.14
  C 386.14 177.85 384.12 212.37 364.66 203.57
  A 0.62 0.60 -77.2 0 0 363.81 204.12
  Z
  M 369.2746 201.3581
  A 7.29 6.55 91.3 0 0 375.9883 194.2186
  A 7.29 6.55 91.3 0 0 369.6054 186.7819
  A 7.29 6.55 91.3 0 0 362.8917 193.9214
  A 7.29 6.55 91.3 0 0 369.2746 201.3581
  Z"
/>
<path fill="#ffffff" d="
  M 432.42 185.34
  Q 435.31 182.66 439.26 183.40
  A 0.90 0.74 0.1 0 1 439.95 183.97
  Q 440.05 184.37 439.94 184.79
  Q 439.78 185.36 439.77 185.75
  C 439.73 187.83 437.86 186.65 436.68 186.85
  C 430.60 187.89 431.59 199.34 431.78 203.92
  A 0.56 0.56 89.0 0 1 431.22 204.50
  L 428.02 204.50
  A 0.52 0.52 -90.0 0 1 427.50 203.98
  L 427.56 184.32
  A 0.69 0.67 82.2 0 1 428.04 183.66
  Q 429.64 183.22 431.27 183.62
  A 0.81 0.72 2.9 0 1 431.88 184.22
  L 432.03 185.19
  Q 432.10 185.63 432.42 185.34
  Z"
/>
<path fill="#ffffff" d="
  M 446.52 196.83
  C 447.75 201.01 452.10 202.22 455.86 200.53
  Q 456.20 200.37 456.61 199.90
  Q 458.03 198.22 460.54 200.82
  A 0.91 0.91 45.7 0 1 460.53 202.10
  Q 457.87 204.73 454.58 205.05
  C 437.21 206.71 437.53 180.64 454.54 183.46
  Q 463.12 184.88 462.83 195.07
  A 0.52 0.51 -89.4 0 1 462.32 195.58
  L 447.36 195.74
  A 0.87 0.85 -8.1 0 0 446.52 196.83
  Z
  M 447.35 189.30
  Q 445.16 191.66 448.37 191.98
  Q 452.27 192.36 457.70 191.74
  A 0.47 0.47 -7.9 0 0 458.12 191.19
  C 457.17 185.92 450.56 185.83 447.35 189.30
  Z"
/>
<path fill="#ffffff" d="
  M 250.63 197.47
  L 255.71 184.67
  A 1.48 1.45 -84.2 0 1 256.79 183.77
  Q 261.07 182.98 260.07 184.89
  C 257.13 190.53 254.91 197.05 252.37 202.94
  C 251.35 205.29 249.38 205.47 248.37 203.04
  Q 244.51 193.85 240.35 184.42
  A 0.44 0.44 -18.0 0 1 240.65 183.82
  Q 243.06 183.25 244.26 183.80
  A 1.45 0.82 80.2 0 1 244.86 184.53
  L 250.23 197.48
  Q 250.43 197.97 250.63 197.47
  Z"
/>
<path fill="#ffffff" d="
  M 416.32 202.40
  Q 411.01 207.17 405.00 203.75
  C 400.71 201.31 401.54 191.27 401.79 184.06
  A 0.57 0.48 -87.4 0 1 402.30 183.50
  L 405.46 183.69
  A 0.64 0.50 -89.7 0 1 405.94 184.31
  Q 405.95 187.80 406.25 196.75
  C 406.41 201.56 411.78 202.80 414.81 200.13
  C 417.80 197.49 417.19 188.68 416.94 184.87
  A 1.00 0.87 86.6 0 1 417.75 183.82
  L 420.72 183.63
  A 0.68 0.44 88.9 0 1 421.19 184.32
  L 421.25 203.75
  A 0.72 0.66 82.5 0 1 420.78 204.43
  C 419.22 204.89 416.34 205.09 416.61 202.56
  Q 416.66 202.10 416.32 202.40
  Z"
/>
<ellipse fill="#031636" cx="0.00" cy="0.00" transform="translate(369.44,194.07) rotate(91.3)" rx="7.29" ry="6.55"/>
<ellipse fill="#031636" cx="0.00" cy="0.00" transform="translate(226.70,194.10) rotate(93.1)" rx="7.19" ry="6.53"/>
<path fill="#031636" d="
  M 267.92 189.20
  C 270.97 185.71 277.77 186.01 278.85 191.19
  A 0.46 0.44 82.8 0 1 278.44 191.74
  L 269.12 192.04
  Q 265.34 192.17 267.92 189.20
  Z"
/>
<path fill="#031636" d="
  M 447.35 189.30
  C 450.56 185.83 457.17 185.92 458.12 191.19
  A 0.47 0.47 -7.9 0 1 457.70 191.74
  Q 452.27 192.36 448.37 191.98
  Q 445.16 191.66 447.35 189.30
  Z"
/>
<path fill="#4fa9f6" d="
  M 119.00 195.79
  L 118.96 196.50
  Q 115.59 193.29 115.28 197.32
  C 115.03 200.58 115.71 202.05 112.85 204.49
  A 0.63 0.63 39.1 0 0 112.96 205.52
  Q 113.96 206.06 114.32 207.20
  A 0.40 0.39 -8.1 0 1 113.93 207.70
  L 106.83 207.76
  Q 105.40 207.77 106.52 206.85
  Q 112.44 201.98 114.91 194.78
  A 0.73 0.67 -80.8 0 1 115.55 194.28
  Q 117.53 194.23 119.00 195.79
  Z"
/>
<path fill="#031636" d="
  M 348.50 200.17
  C 346.38 202.41 338.14 201.35 340.80 196.80
  C 341.94 194.85 344.78 194.73 346.76 194.94
  Q 347.20 194.98 347.73 194.83
  Q 350.27 194.09 349.56 198.08
  A 4.14 4.12 -18.3 0 1 348.50 200.17
  Z"
/>
<path fill="#4fa9f6" d="
  M 152.75 199.29
  L 153.25 199.21
  Q 155.34 200.32 157.40 200.05
  A 2.11 2.09 -19.4 0 1 159.47 201.03
  Q 161.36 204.12 163.29 206.95
  Q 163.71 207.56 163.16 207.51
  A 0.76 0.71 75.0 0 1 162.61 207.17
  L 159.21 202.01
  A 1.15 1.07 53.9 0 0 157.59 201.70
  C 154.34 204.36 153.31 201.82 152.75 199.29
  Z"
/>
<path fill="#4fa9f6" d="
  M 129.38 205.65
  C 132.81 207.93 129.83 207.46 128.76 207.06
  Q 124.82 205.57 120.60 205.04
  C 120.00 204.97 117.74 203.31 120.69 204.06
  Q 124.65 205.07 128.06 205.22
  A 2.57 2.57 63.0 0 1 129.38 205.65
  Z"
/>
<path fill="#4fa9f6" d="
  M 151.73 206.05
  C 154.46 206.67 152.41 207.83 150.98 207.80
  Q 145.59 207.72 140.19 207.80
  A 0.38 0.36 8.0 0 1 139.81 207.33
  Q 140.09 206.43 140.80 205.76
  A 1.62 1.24 14.8 0 1 141.69 205.39
  Q 146.76 204.93 151.73 206.05
  Z"
/>
<path fill="#e9eaeb" d="
  M 29.50 379.04
  L 533.00 379.01
  Q 535.47 381.14 532.08 382.71
  Q 530.42 383.49 530.14 384.94
  A 1.95 1.94 5.6 0 1 528.23 386.50
  Q 288.75 386.50 50.00 386.44
  Q 41.10 386.44 32.00 385.47
  A 0.62 0.55 86.2 0 1 31.50 384.98
  L 30.89 381.99
  Q 30.79 381.51 30.94 381.04
  Q 31.42 379.55 29.50 379.04
  Z"
/>
</svg>
