<?xml version="1.0" encoding="UTF-8"?>
<svg id="Layer_2" data-name="Layer 2" xmlns="http://www.w3.org/2000/svg" xmlns:xlink="http://www.w3.org/1999/xlink" viewBox="0 0 2307.83 317.65">
  <defs>
    <style>
      .cls-1 {
        opacity: .3;
      }

      .cls-2 {
        fill: none;
      }

      .cls-3 {
        clip-path: url(#clippath-1);
      }

      .cls-4 {
        opacity: .7;
      }

      .cls-5 {
        fill: #133c4f;
      }

      .cls-6 {
        fill: #018ed9;
      }

      .cls-7 {
        clip-path: url(#clippath);
      }
    </style>
    <clipPath id="clippath">
      <rect class="cls-2" x="133.29" y="12.32" width="136.71" height="289.91"/>
    </clipPath>
    <clipPath id="clippath-1">
      <rect class="cls-2" width="178.21" height="313.88"/>
    </clipPath>
  </defs>
  <g id="Layer_1-2" data-name="Layer 1">
    <g>
      <g>
        <g class="cls-4">
          <g class="cls-7">
            <path class="cls-6" d="M133.29,97.05L218.01,12.32c18.17,7.62,35.14,18.84,49.91,33.62l2.08,2.07-73.99,73.99v72.03l72.86,72.87c-.28.36-.64.72-.96,1.04-15.21,15.21-32.78,26.63-51.47,34.3l-83.17-83.17v-122.02Z"/>
          </g>
        </g>
        <g class="cls-1">
          <g class="cls-3">
            <path class="cls-6" d="M45.97,45.98C81.94,10,131.05-4.85,177.85,1.38L57.83,121.4l-.04,70.63,120.42,120.42c-46.91,6.35-96.19-8.5-132.24-44.56-61.29-61.29-61.29-160.63,0-221.92"/>
          </g>
        </g>
        <path class="cls-6" d="M251.16,118.05l40.97-40.97c29.31,49.51,29.03,111.76-.84,161.11l-40.57-40.57.44-79.57Z"/>
      </g>
      <path class="cls-5" d="M491.95,128.02c-8.22-12.16-20.37-21.36-40.42-21.36-26.95,0-45.36,20.05-45.36,49.62s18.4,50.28,45.36,50.28c20.37,0,33.19-9.86,41.08-22.02l26.94,27.28c-12.49,20.38-37.14,35.49-68.03,35.49-53.24,0-91.7-38.12-91.7-90.37s38.78-90.38,91.7-90.38c29.57,0,52.58,11.83,68.36,33.52l-27.94,27.94Z"/>
      <path class="cls-5" d="M525.82,156.94c0-52.58,38.11-90.38,91.03-90.38s91.37,37.8,91.37,90.38-38.45,90.37-91.37,90.37-91.03-38.12-91.03-90.37ZM661.87,156.28c0-29.25-18.07-49.62-45.03-49.62s-45.03,20.38-45.03,49.62,18.4,50.28,45.03,50.28,45.03-20.7,45.03-50.28Z"/>
      <path class="cls-5" d="M765.08,242.06l-53.24-170.24h48.31l35.49,130.14h1.31l35.16-130.14h47.99l-52.91,170.24h-62.12Z"/>
      <path class="cls-5" d="M975.42,247.32c-53.9,0-91.36-38.12-91.36-90.37s37.79-90.38,90.7-90.38c49.95,0,83.48,37.8,83.48,90.38,0,4.6-.33,10.19-1.31,14.46h-125.21c4.94,22.35,20.38,35.16,44.04,35.16,19.06,0,31.55-5.92,42.72-20.05l26.62,27.94c-17.42,22.68-40.75,32.86-69.67,32.86ZM931.7,142.15h81.5c-3.28-21.36-18.07-35.49-39.44-35.49s-37.46,13.48-42.07,35.49Z"/>
      <path class="cls-5" d="M1161.77,70.83v39.77c-3.28-.98-6.24-1.31-10.19-1.31-15.45,0-25.64,7.56-25.64,26.95v105.82h-46.01v-112.4c0-40.42,22.68-61.13,63.76-61.13,7.23,0,14.13.98,18.07,2.3Z"/>
      <path class="cls-5" d="M1309.33,123.09c-9.86-14.46-24.98-24.65-46.99-24.65-31.88,0-54.56,24.32-54.56,58.5s22.68,58.49,54.56,58.49c22.67,0,38.44-11.17,47.98-25.96l21.03,21.36c-13.15,21.03-38.12,36.48-69.01,36.48-52.91,0-90.7-38.45-90.7-90.05s38.78-90.05,90.7-90.05c29.25,0,52.91,12.49,68.69,34.18l-21.69,21.69Z"/>
      <path class="cls-5" d="M1427.33,67.22c30.23,0,52.25,14.46,60.47,31.55h.98c-.33-3.61-.66-7.89-.66-16.76v-9.53h32.53v169.58h-32.53v-12.16c0-7.56.33-12.48.66-17.09h-.98c-8.88,20.05-32.21,34.51-61.79,34.51-51.26,0-85.44-37.79-85.44-90.05s36.15-90.05,86.76-90.05ZM1486.81,156.94c0-34.18-23-58.5-55.21-58.5s-55.21,24.32-55.21,58.5,23.66,58.49,55.21,58.49,55.21-24.65,55.21-58.49Z"/>
      <path class="cls-5" d="M1654.44,247.32c-26.95,0-50.28-11.5-58.82-28.59h-.99c.66,3.28.99,7.56.99,16.43v82.49h-35.5V72.48h32.87v9.86c0,7.56-.33,11.83-.66,16.43h.98c10.85-18.07,33.53-31.55,62.78-31.55,48.96,0,84.45,37.47,84.45,90.05s-36.15,90.05-86.1,90.05ZM1594.29,156.94c0,34.18,23.01,58.49,55.21,58.49s55.21-24.32,55.21-58.49-23.66-58.5-55.21-58.5-55.21,24.32-55.21,58.5Z"/>
      <path class="cls-5" d="M1770.79,183.23v-79.86h-18.4v-30.89h18.4V28.44h35.49v44.04h49.3v30.89h-49.3v76.57c0,22.68,12.16,33.19,32.21,33.19,4.6,0,8.87-.66,12.81-2.3v31.22c-4.6,1.97-11.17,2.96-18.4,2.96-39.77,0-62.12-21.36-62.12-61.78Z"/>
      <path class="cls-5" d="M1945.97,247.32c-41.07,0-70.66-27.94-70.66-68.36v-106.48h35.49v107.46c0,20.71,14.79,35.49,34.84,35.49s34.83-14.79,34.83-35.49v-107.46h35.49v107.46c0,39.77-29.24,67.37-70,67.37Z"/>
      <path class="cls-5" d="M2130.35,70.51v30.89c-3.94-.98-7.89-1.31-12.16-1.31-19.39,0-31.22,9.86-31.22,33.19v108.78h-35.49v-113.05c0-39.44,22.02-60.8,61.45-60.8,6.9,0,13.15.99,17.42,2.3Z"/>
      <path class="cls-5" d="M2225.01,247.32c-52.58,0-90.37-38.45-90.37-90.05s37.79-90.05,89.71-90.05,83.48,38.12,83.48,90.05c0,3.94-.33,9.53-.98,12.82h-135.08c4.6,27.93,24.65,45.35,53.57,45.35,21.03,0,36.15-7.56,48.31-23l20.7,21.36c-16.76,22.35-40.42,33.52-69.34,33.52ZM2171.76,144.45h100.9c-2.63-26.94-21.69-46.01-48.97-46.01s-47.32,18.08-51.93,46.01Z"/>
    </g>
  </g>
</svg>